<?xml version="1.0" encoding="iso-8859-1"?>
<!-- Generator: Adobe Illustrator 19.0.0, SVG Export Plug-In . SVG Version: 6.00 Build 0)  -->
<svg version="1.1" id="Layer_1" xmlns="http://www.w3.org/2000/svg" xmlns:xlink="http://www.w3.org/1999/xlink" x="0px" y="0px"
	 viewBox="0 0 512.004 512.004" style="enable-background:new 0 0 512.004 512.004;" xml:space="preserve">
<polygon style="fill:#BDC4D0;" points="224.901,409.542 456.291,89.158 478.998,100.081 365.923,507.172 "/>
<polygon style="fill:#919CB0;" points="140.805,353.103 477.351,16.548 496.781,33.094 161.225,497.717 140.805,499.202 "/>
<polygon style="fill:#D3D7DF;" points="0.551,254.219 408.273,50.349 423.045,70.854 141.854,352.053 "/>
<path style="fill:#573A32;" d="M502.678,5.839c-4.676-3.849-10.453-5.837-16.282-5.837c-3.9,0-7.817,0.887-11.443,2.705
	l-460.8,230.4c-8.09,4.045-13.449,12.058-14.089,21.086c-0.64,9.02,3.524,17.715,10.965,22.861l117.035,81.024
	c0,0.111-0.06,0.213-0.06,0.324v128c0,11.102,7.159,20.941,17.724,24.354c2.594,0.845,5.248,1.246,7.876,1.246
	c8.064,0,15.855-3.823,20.753-10.615l53.572-74.18l115.9,80.239c4.343,3.004,9.438,4.557,14.575,4.557
	c2.935,0,5.879-0.503,8.704-1.527c7.791-2.825,13.739-9.242,15.957-17.22l128-460.8C513.78,22.709,510.494,12.273,502.678,5.839z
	 M140.361,335.448L25.605,256.002L413.999,61.809L140.361,335.448z M153.605,486.402v-128l332.8-332.8L153.605,486.402z
	 M358.405,486.402l-115.482-79.949L466.667,96.651L358.405,486.402z"/>
<g>
</g>
<g>
</g>
<g>
</g>
<g>
</g>
<g>
</g>
<g>
</g>
<g>
</g>
<g>
</g>
<g>
</g>
<g>
</g>
<g>
</g>
<g>
</g>
<g>
</g>
<g>
</g>
<g>
</g>
</svg>
